<svg width="1200" height="630" viewBox="0 0 1200 630" fill="none" xmlns="http://www.w3.org/2000/svg">
<rect width="1200" height="630" fill="white"/>
<g clip-path="url(#clip0_298_654)">
<path d="M459.954 302.077C463.09 302.137 464.477 304.007 465.562 306.36C466.889 309.558 466.949 313.117 466.044 316.496L460.798 330.372C456.637 339.965 450.547 348.713 443.612 356.375C434.808 366.752 425.703 376.345 415.21 385.395L410.869 389.256C410.688 391.971 410.507 394.686 410.808 397.28C410.386 415.681 409.482 434.203 406.828 452.785C403.994 470.522 400.075 487.596 392.356 503.946C389.642 510.461 386.386 516.676 381.441 521.563C378.668 524.519 376.858 527.717 374.085 530.673C367.632 538.214 360.818 544.489 351.472 547.867C348.276 549.195 344.899 550.04 341.462 550.522C330.909 551.126 321.261 548.35 312.698 543.04C305.703 538.637 301.783 532.121 300.517 523.976C299.07 511.85 300.758 499.783 304.376 488.139C308.356 474.564 314.929 462.559 323.673 451.759C332.718 440.417 342.366 429.799 353.281 420.628L388.075 392.152L390.969 389.618C391.15 388.652 391.693 387.204 391.21 385.515C391.512 369.829 391.632 353.72 390.607 337.914C389.462 325.304 387.411 312.454 383.673 300.025C382.647 296.285 380.838 292.725 379.331 288.683C378.909 286.994 378.969 285.666 378.547 283.977C381.14 281.926 383.13 282.77 384.517 284.641C389.281 289.166 393.622 293.811 396.155 299.844C401.401 312.755 405.743 325.847 407.25 339.724C408.456 349.196 409.301 359.271 410.205 369.286C410.567 370.553 410.446 371.88 410.989 373.992L414.607 370.794C422.326 362.951 429.743 355.591 436.919 347.446C443.793 339.784 449.1 331.277 453.803 321.986C456.758 316.315 459.592 310.161 457.783 303.525C458.808 302.801 459.532 302.137 459.954 302.077ZM385.06 409.467C378.426 414.776 371.974 420.567 364.919 425.997C353.582 435.288 343.512 445.968 334.467 457.31C325.723 468.109 319.029 479.692 314.929 492.845C312.818 498.335 311.371 504.489 310.587 510.039C309.502 516.133 309.864 522.287 311.793 528.019C314.869 537.913 321.2 541.593 330.788 540.808C335.612 540.447 340.497 538.697 344.296 536.283C349.964 532.543 354.306 528.682 358.346 523.614C364.075 516.736 368.356 509.316 371.612 501.352C378.788 484.7 383.552 467.385 386.266 449.225L390.185 410.251C390.366 409.286 390.065 408.079 389.823 405.425L385.06 409.467ZM375.23 220.207L383.612 226.481C382.225 233.118 381.08 238.728 380.416 244.701C380.175 250.553 380.899 256.647 380.778 262.921C379.512 263.283 377.884 263.706 376.919 263.525C374.507 262.801 372.396 261.594 370.527 261.232C368.175 259.181 367.934 256.587 367.391 254.475C366.065 244.581 366.788 235.47 369.803 226.602C370.165 224.731 371.13 223.102 372.155 221.956L375.23 220.207ZM386.386 401.081C388.497 400.538 388.497 400.537 389.16 398.124L386.386 401.081Z" fill="#333333"/>
<path d="M476.356 295.018C475.27 305.998 475.572 317.099 476.235 328.079C476.537 332.484 477.2 336.767 479.974 340.447C483.351 341.352 486.004 339.723 488.838 338.516C493.481 335.922 497.823 332.122 501.743 328.381C507.712 322.348 513.14 315.953 517.843 308.472C524.295 299.181 530.748 289.889 535.873 279.09C536.295 278.969 536.597 278.427 537.019 278.366C539.13 277.823 539.13 279.573 540.155 280.176C541.3 281.202 542.687 281.262 544.677 282.106C544.617 283.494 544.496 284.821 544.014 286.329C542.989 289.286 541.602 292.303 540.094 294.957C533.582 305.636 527.13 316.677 520.195 327.476C516.637 332.423 512.476 337.129 507.954 341.895C505.481 344.369 502.466 346.481 499.873 348.532C493.903 352.815 487.813 353.539 481.3 350.825C479.431 350.463 477.501 350.04 475.511 349.256C468.396 347.567 463.511 342.619 460.798 335.801C455.974 321.02 454.044 305.455 456.637 290.071C457.3 285.847 458.386 281.563 460.014 277.581C461.944 273.056 466.949 271.729 470.506 275.229C472.858 277.28 476.898 277.522 478.044 281.684L476.356 295.018ZM471.652 215.501C474.366 215.682 475.21 217.25 475.391 219.422C475.391 221.172 475.331 222.559 474.969 224.43C474.125 231.368 473.702 238.125 474.667 245.063C474.788 245.485 474.486 246.028 474.305 246.933C470.929 246.028 467.612 245.184 464.416 243.314C462.305 242.107 461.22 239.693 461.099 237.522C460.436 230.101 460.677 222.439 461.883 215.44C462.667 213.449 463.089 211.579 466.225 211.579C467.009 214.475 467.371 217.552 468.155 220.448C469.421 218.759 470.205 216.768 471.652 215.501ZM467.25 227.386C468.637 224.309 468.637 222.559 468.094 220.448C466.707 222.137 466.466 224.43 467.25 227.386ZM467.371 231.368L467.25 230.946L466.828 231.066L467.371 231.368Z" fill="#333333"/>
<path d="M607.571 276.978C609.682 279.995 611.551 283.494 612.938 287.175C614.747 290.674 615.772 294.475 617.582 297.974C618.908 301.172 620.597 304.309 623.551 307.084C629.521 309.497 634.767 307.205 638.989 302.981C642.607 299.784 645.019 295.56 647.069 291.458C651.109 283.252 659.31 258.758 661.783 249.588C661.843 248.2 662.808 246.632 662.868 245.304L664.979 244.761C671.974 246.028 672.878 247.597 671.612 254.596C669.26 264.128 661.18 289.044 656.898 298.215C655.813 300.749 654.124 302.982 652.617 305.576C647.672 312.212 641.401 315.289 632.476 315.41C619.511 315.289 610.767 309.135 605.461 297.612C603.652 294.113 602.084 290.01 600.697 286.39L597.984 281.322C595.692 281.021 594.848 283.072 593.823 284.218C587.25 293.087 581.883 303.042 577.963 313.419C575.37 320.357 572.235 326.993 569.159 334.052C567.652 338.456 567.23 338.577 563.19 341.895C554.024 342.559 550.285 340.447 546.848 332.423C543.953 326.511 541.843 320.356 540.938 313.479C539.009 304.61 537.501 295.621 536.416 286.571C533.28 261.534 532.315 235.892 533.702 210.976C535.451 182.379 540.577 154.686 547.572 127.416C550.406 116.375 554.325 105.998 559.632 95.6214C561.26 91.6395 563.793 87.8386 566.566 84.822C570.727 80.1765 575.913 77.8839 582.185 78.0045C583.571 78.0649 585.32 78.0649 586.888 78.9698C591.531 81.3228 596.597 83.555 600.577 86.9336C605.521 90.4932 608.657 95.5007 610.345 101.715C612.094 108.351 613.481 115.169 613.18 122.409C613.36 141.533 609.381 159.996 601.059 177.431L596.597 187.567C588.637 207.959 579.531 227.386 569.582 246.994C567.773 250.131 566.024 253.751 565.783 257.853L563.853 262.378L560.416 269.558C555.893 276.134 555.169 283.434 555.833 290.854C556.918 299.965 556.737 309.377 557.401 318.547L558.426 325.847C560.838 326.571 560.898 325.183 561.561 324.098L571.451 300.93C575.672 291.759 580.376 282.469 586.285 274.686C588.215 271.911 590.144 269.196 593.521 268.291C599.913 268.291 604.014 272.091 607.571 276.978ZM555.471 248.924C555.29 249.89 555.471 250.674 555.953 252.363L558.305 247.717L571.571 220.508C579.169 203.736 585.923 187.265 591.592 170.071C596.536 153.6 599.672 136.707 598.647 119.573C598.345 113.419 597.923 106.843 595.933 101.112C595.149 98.2156 594.064 95.8024 591.833 94.1734C587.913 96.104 585.622 99.4223 584.054 103.404C582.124 107.929 580.195 112.454 578.747 116.858C573.561 132.544 569.702 148.291 566.386 164.339C566.205 167.054 565.119 169.588 564.396 172.002C564.154 171.157 563.551 170.433 563.31 169.588C562.406 171.157 561.984 173.087 561.622 174.958C557.039 199.392 555.652 224.308 555.471 248.924ZM563.551 168.683C564.154 167.658 564.335 166.692 564.034 165.425L563.551 168.683ZM564.154 172.544L564.456 172.002L564.697 172.846L563.913 174.837C564.154 174.294 563.913 173.449 564.154 172.544ZM563.913 165.003C565.059 164.279 564.697 163.012 564.516 162.167L563.913 165.003ZM564.818 161.624C564.697 161.202 564.818 161.624 564.516 162.167L564.818 161.624Z" fill="#333333"/>
<path d="M688.316 273.721C696.216 256.466 701.763 238.909 705.984 221.232L708.276 213.027C708.577 210.734 710.205 208.502 712.557 207.416C715.994 206.933 717.924 209.105 720.336 211.579C722.266 213.751 723.532 216.948 723.592 220.508C723.291 227.748 723.11 235.349 723.291 242.89C722.989 251.88 723.592 260.689 724.979 269.196C726.849 274.505 727.814 276.496 731.13 280.478C733.12 281.262 735.11 280.297 736.437 278.607C739.934 274.988 743.854 271.247 746.808 267.386C755.914 256.466 767.552 234.626 773.582 222.318C775.391 219.181 776.296 215.802 778.889 213.751C781.904 213.389 784.316 214.113 785.944 216.767C785.04 218.336 785.04 220.146 784.135 221.715C776.959 238.366 763.874 264.61 752.175 279.331L744.698 288.019C741.623 291.518 738.608 291.88 734.929 291.518C719.733 287.959 710.869 278.306 707.07 262.378C706.829 261.534 707.07 260.629 706.045 258.638L704.356 264.007C702.185 270.824 700.075 278.064 697.482 285.003C696.457 287.959 695.19 291.397 693.261 294.172C690.909 298.818 688.557 299.904 684.155 298.396C682.708 297.913 681.623 297.31 680.296 297.189C674.205 296.103 670.889 292.122 669.08 286.813C666.909 282.046 665.281 277.582 664.798 272.333C662.929 260.327 661.904 248.139 663.472 235.651C664.075 232.815 664.135 229.678 666.909 226.722C668.296 226.783 669.321 227.446 671.13 227.386C672.517 227.446 674.266 227.446 675.713 227.929C678.849 229.739 679.633 232.694 679.693 236.254C679.753 246.51 680.236 256.647 681.08 266.662C681.261 270.644 681.924 274.927 682.648 279.211C682.889 280.055 682.648 280.96 683.733 283.374L688.316 273.721Z" fill="#333333"/>
<path d="M881.885 196.677L889.422 184.852L894.488 187.084L899.673 189.739C898.89 191.73 898.769 193.117 898.166 194.143C895.03 200.78 884.779 222.68 880.498 228.291C877.362 233.178 873.442 236.857 868.317 239.572C863.734 242.589 858.789 243.916 853.302 243.555C841.483 242.709 830.568 233.54 824.417 222.258L821.945 218.034C821.523 218.155 821.402 217.733 820.92 217.431L817.121 223.344C810.608 234.022 805.362 252.785 800.839 264.308C800.055 266.299 799.332 268.712 798.005 270.402C797.101 271.971 796.075 273.178 794.628 274.445C787.271 273.721 782.99 270.885 781 263.344C779.251 256.707 777.744 249.467 777.141 242.046C776.598 233.298 775.392 217.069 774.307 208.019L774.91 205.184C779.915 205.606 783.231 207.899 784.859 212.363C785.643 215.259 786.307 217.793 786.668 220.81C787.814 228.532 788.779 243.916 789.442 251.337C789.684 253.931 789.804 256.164 791.432 258.819L793.784 254.173C798.427 243.132 803.251 224.43 809.342 213.872C810.427 211.338 811.694 209.226 813.322 206.994C826.045 192.876 845.824 253.69 861.563 228.954C867.352 224.188 878.206 203.012 881.885 196.677Z" fill="#333333"/>
</g>
<path d="M747.237 523H742.989L749.63 487.771H753.902L751.803 498.781H751.632L749.288 511.159H749.459L747.237 523ZM759.054 523H754.806L756.979 511.159H757.149L759.518 498.757H759.347L761.446 487.771H765.694L759.054 523ZM766.891 513.723H739.107L739.913 509.523H747.579V509.694H759.566V509.523H767.696L766.891 513.723ZM769.137 500.881H761.031V500.71H749.142L749.117 500.881H741.329L742.159 496.682H769.967L769.137 500.881ZM785.567 523.586C782.768 523.586 780.359 522.845 778.341 521.364C776.339 519.883 774.801 517.784 773.727 515.065C772.652 512.347 772.115 509.125 772.115 505.397V505.349C772.115 501.621 772.652 498.399 773.727 495.681C774.801 492.963 776.339 490.871 778.341 489.406C780.359 487.925 782.768 487.185 785.567 487.185C788.367 487.185 790.768 487.925 792.77 489.406C794.788 490.871 796.334 492.963 797.408 495.681C798.499 498.399 799.044 501.621 799.044 505.349V505.397C799.044 509.125 798.499 512.347 797.408 515.065C796.334 517.784 794.788 519.883 792.77 521.364C790.768 522.845 788.367 523.586 785.567 523.586ZM785.567 518.996C787.244 518.996 788.668 518.451 789.84 517.36C791.028 516.27 791.931 514.707 792.55 512.673C793.185 510.638 793.502 508.213 793.502 505.397V505.349C793.502 502.533 793.185 500.116 792.55 498.098C791.931 496.063 791.028 494.501 789.84 493.41C788.668 492.32 787.244 491.774 785.567 491.774C783.891 491.774 782.459 492.32 781.271 493.41C780.099 494.501 779.203 496.063 778.585 498.098C777.966 500.116 777.657 502.533 777.657 505.349V505.397C777.657 508.213 777.966 510.638 778.585 512.673C779.203 514.707 780.099 516.27 781.271 517.36C782.459 518.451 783.891 518.996 785.567 518.996ZM812.472 523V493.215H812.35L803.146 499.562V494.362L812.423 487.771H817.843V523H812.472ZM839.767 510.964V506.374H848.8C851.16 506.374 852.991 505.764 854.293 504.543C855.611 503.306 856.271 501.597 856.271 499.416V499.367C856.271 497.154 855.611 495.437 854.293 494.216C852.991 492.995 851.16 492.385 848.8 492.385H839.767V487.771H850.167C852.478 487.771 854.505 488.259 856.246 489.235C858.004 490.196 859.379 491.547 860.372 493.288C861.365 495.013 861.861 497.023 861.861 499.318V499.367C861.861 501.662 861.365 503.688 860.372 505.446C859.379 507.188 858.004 508.547 856.246 509.523C854.505 510.484 852.478 510.964 850.167 510.964H839.767ZM837.032 523V487.771H842.501V523H837.032ZM881.93 523.586C878.528 523.586 875.59 522.854 873.116 521.389C870.642 519.908 868.738 517.808 867.403 515.09C866.069 512.355 865.401 509.125 865.401 505.397V505.349C865.401 501.621 866.069 498.399 867.403 495.681C868.754 492.963 870.667 490.871 873.141 489.406C875.615 487.925 878.544 487.185 881.93 487.185C885.299 487.185 888.22 487.925 890.694 489.406C893.168 490.887 895.073 492.987 896.407 495.705C897.742 498.407 898.409 501.621 898.409 505.349V505.397C898.409 509.125 897.742 512.347 896.407 515.065C895.073 517.784 893.168 519.883 890.694 521.364C888.237 522.845 885.315 523.586 881.93 523.586ZM881.93 518.728C884.176 518.728 886.113 518.182 887.74 517.092C889.368 516.001 890.621 514.455 891.5 512.453C892.379 510.451 892.818 508.099 892.818 505.397V505.349C892.818 502.631 892.371 500.279 891.476 498.293C890.597 496.291 889.335 494.753 887.691 493.679C886.064 492.588 884.143 492.043 881.93 492.043C879.7 492.043 877.763 492.58 876.119 493.654C874.492 494.729 873.23 496.267 872.335 498.269C871.44 500.254 870.992 502.614 870.992 505.349V505.397C870.992 508.116 871.44 510.476 872.335 512.478C873.23 514.479 874.492 516.026 876.119 517.116C877.747 518.19 879.684 518.728 881.93 518.728ZM903.634 523V487.771H917.33C919.723 487.771 921.798 488.21 923.556 489.089C925.313 489.968 926.664 491.213 927.608 492.824C928.569 494.436 929.049 496.348 929.049 498.562V498.61C929.049 501.003 928.438 503.094 927.218 504.885C926.013 506.675 924.353 507.928 922.237 508.645L930.123 523H923.8L916.622 509.499C916.557 509.499 916.5 509.499 916.451 509.499C916.419 509.499 916.37 509.499 916.305 509.499H909.103V523H903.634ZM909.103 504.982H916.793C918.893 504.982 920.52 504.437 921.676 503.347C922.831 502.24 923.409 500.677 923.409 498.659V498.61C923.409 496.674 922.799 495.152 921.578 494.045C920.374 492.922 918.722 492.36 916.622 492.36H909.103V504.982ZM943.062 523V492.507H932.296V487.771H959.322V492.507H948.556V523H943.062ZM963.79 523V487.771H985.787V492.507H969.259V503.64H984.396V508.254H969.259V523H963.79ZM1005.81 523.586C1002.4 523.586 999.467 522.854 996.993 521.389C994.519 519.908 992.615 517.808 991.28 515.09C989.946 512.355 989.278 509.125 989.278 505.397V505.349C989.278 501.621 989.946 498.399 991.28 495.681C992.631 492.963 994.544 490.871 997.018 489.406C999.492 487.925 1002.42 487.185 1005.81 487.185C1009.18 487.185 1012.1 487.925 1014.57 489.406C1017.05 490.887 1018.95 492.987 1020.28 495.705C1021.62 498.407 1022.29 501.621 1022.29 505.349V505.397C1022.29 509.125 1021.62 512.347 1020.28 515.065C1018.95 517.784 1017.05 519.883 1014.57 521.364C1012.11 522.845 1009.19 523.586 1005.81 523.586ZM1005.81 518.728C1008.05 518.728 1009.99 518.182 1011.62 517.092C1013.24 516.001 1014.5 514.455 1015.38 512.453C1016.26 510.451 1016.7 508.099 1016.7 505.397V505.349C1016.7 502.631 1016.25 500.279 1015.35 498.293C1014.47 496.291 1013.21 494.753 1011.57 493.679C1009.94 492.588 1008.02 492.043 1005.81 492.043C1003.58 492.043 1001.64 492.58 999.996 493.654C998.368 494.729 997.107 496.267 996.212 498.269C995.317 500.254 994.869 502.614 994.869 505.349V505.397C994.869 508.116 995.317 510.476 996.212 512.478C997.107 514.479 998.368 516.026 999.996 517.116C1001.62 518.19 1003.56 518.728 1005.81 518.728ZM1027.51 523V487.771H1032.98V518.264H1049.41V523H1027.51ZM1054.07 523V487.771H1059.54V523H1054.07ZM1081.29 523.586C1077.89 523.586 1074.96 522.854 1072.48 521.389C1070.01 519.908 1068.1 517.808 1066.77 515.09C1065.43 512.355 1064.77 509.125 1064.77 505.397V505.349C1064.77 501.621 1065.43 498.399 1066.77 495.681C1068.12 492.963 1070.03 490.871 1072.51 489.406C1074.98 487.925 1077.91 487.185 1081.29 487.185C1084.66 487.185 1087.59 487.925 1090.06 489.406C1092.53 490.887 1094.44 492.987 1095.77 495.705C1097.11 498.407 1097.77 501.621 1097.77 505.349V505.397C1097.77 509.125 1097.11 512.347 1095.77 515.065C1094.44 517.784 1092.53 519.883 1090.06 521.364C1087.6 522.845 1084.68 523.586 1081.29 523.586ZM1081.29 518.728C1083.54 518.728 1085.48 518.182 1087.11 517.092C1088.73 516.001 1089.99 514.455 1090.87 512.453C1091.74 510.451 1092.18 508.099 1092.18 505.397V505.349C1092.18 502.631 1091.74 500.279 1090.84 498.293C1089.96 496.291 1088.7 494.753 1087.06 493.679C1085.43 492.588 1083.51 492.043 1081.29 492.043C1079.07 492.043 1077.13 492.58 1075.48 493.654C1073.86 494.729 1072.6 496.267 1071.7 498.269C1070.81 500.254 1070.36 502.614 1070.36 505.349V505.397C1070.36 508.116 1070.81 510.476 1071.7 512.478C1072.6 514.479 1073.86 516.026 1075.48 517.116C1077.11 518.19 1079.05 518.728 1081.29 518.728Z" fill="black"/>
<defs>
<clipPath id="clip0_298_654">
<rect width="600" height="473" fill="white" transform="translate(300 78)"/>
</clipPath>
</defs>
</svg>
