<svg width="339" height="126" viewBox="0 0 339 126" fill="none" xmlns="http://www.w3.org/2000/svg">
<path fill-rule="evenodd" clip-rule="evenodd" d="M337.766 56.2362C337.766 87.2945 262.434 112.472 169.509 112.472C76.5831 112.472 1.25195 87.2945 1.25195 56.2362C1.25195 25.1778 76.5831 0 169.509 0C262.434 0 337.766 25.1778 337.766 56.2362ZM96.7859 54.6615H78.5207V62.0847H88.6348C88.7563 63.7329 88.3901 65.3805 87.582 66.821C86.7739 68.2615 85.5598 69.4309 84.0919 70.1827C82.16 71.1941 80.0081 71.7093 77.829 71.6823C74.6496 71.8373 71.5381 70.7255 69.1731 68.5893C66.4436 65.8775 65.0788 61.866 65.0788 56.5548C65.0788 51.2436 66.3252 47.1696 68.8179 44.3328C70.457 42.5882 72.5846 41.3822 74.9206 40.8736C77.2566 40.365 79.6914 40.5776 81.9045 41.4835C83.0183 42.017 84.0355 42.7328 84.9144 43.6017C85.6534 44.3248 86.2832 45.1521 86.784 46.0574C87.1359 46.6239 87.3475 47.2667 87.4009 47.9319H96.5989C96.261 44.1672 94.5661 40.6551 91.8317 38.0531C87.8655 34.4633 82.642 32.5961 77.3055 32.8606C74.2329 32.7036 71.1669 33.2792 68.3591 34.5402C65.5513 35.8013 63.0817 37.7118 61.1528 40.1151C57.6329 44.8068 55.8426 50.5764 56.0864 56.4423C56.0241 63.803 57.9934 69.5954 61.9941 73.8193C63.7681 75.7378 65.9296 77.2551 68.3345 78.2701C70.7394 79.285 73.3324 79.7743 75.9407 79.7054C79.2215 79.8194 82.4659 78.9866 85.2883 77.306C87.5318 75.9 88.6535 74.4192 88.6535 72.8446V78.4682H96.7859V54.6615ZM127.52 78.7306H118.416V61.8597L102.992 33.8916H113.705L123.052 53.4618L131.596 33.8916H141.841L127.52 61.8597V78.7306ZM168.592 32.7468C164.134 32.7468 159.78 34.1001 156.104 36.6285C150.645 40.6525 147.909 47.1884 147.897 56.2361C147.884 65.2839 150.62 71.8011 156.104 75.7876C159.766 78.3512 164.125 79.7259 168.592 79.7259C173.059 79.7259 177.418 78.3512 181.081 75.7876C186.602 71.876 189.356 65.3714 189.344 56.2736C189.331 47.1759 186.577 40.6275 181.081 36.6285C177.404 34.1001 173.05 32.7468 168.592 32.7468ZM164.45 70.9329C163.128 70.401 161.929 69.6034 160.927 68.5893C158.397 65.9275 157.101 61.8098 157.038 56.2361C156.976 50.6625 158.272 46.5135 160.927 43.7892C161.929 42.7751 163.128 41.9775 164.45 41.4456C165.771 40.9137 167.187 40.6586 168.611 40.6962C170.026 40.6586 171.434 40.9138 172.746 41.446C174.058 41.9781 175.247 42.7758 176.238 43.7892C178.931 46.4885 180.295 50.6125 180.295 56.2361C180.295 61.8598 178.931 65.9275 176.238 68.5893C175.247 69.6028 174.058 70.4004 172.746 70.9326C171.434 71.4648 170.026 71.72 168.611 71.6823C167.187 71.7199 165.771 71.4649 164.45 70.9329ZM207.331 58.598V78.7306H198.17V33.8916H207.293V50.8937H224.53V33.8916H233.691V78.7306H224.642V58.598H207.331ZM241.168 78.7306H250.796L253.881 69.3579H270.332L273.23 78.7306H283.027L267.397 33.9854H256.928L241.168 78.7306ZM267.734 61.8597H256.405L261.957 44.1641H262.125L267.734 61.8597Z" fill="white"/>
<path d="M0 124.657H339" stroke="white" stroke-width="2.5" stroke-miterlimit="10"/>
</svg>
