<svg width="217" height="180" viewBox="0 0 217 180" fill="none" xmlns="http://www.w3.org/2000/svg">
<path d="M31.3679 41.5703H18.5372V71.0731L21.8226 74.3585V76.5521H0V74.3585L3.28539 71.0731V5.48407L0 2.19363V0H40.6883C52.9731 0 61.1992 8.22611 61.1992 21.0594C61.1992 33.3442 52.9731 41.5703 40.6883 41.5703H34.5471M27.5265 39.3767C38.6059 39.3767 45.955 31.9163 45.955 20.6196C45.955 9.54279 38.6059 2.19363 27.5265 2.19363H18.5372V39.3767H27.5265Z" fill="white"/>
<path d="M117.465 43.0993V45.2929H80.5022C80.9419 46.8295 81.4903 48.3635 82.0387 49.9001C87.0932 61.8564 93.7751 66.3523 101.342 65.8039C109.681 65.1468 113.187 58.8944 115.711 54.5072H117.905C112.638 66.8906 103.753 72.7032 92.3473 72.7032C76.4434 72.7032 65.0381 61.2978 65.0381 44.3983C65.0381 27.6175 76.1149 15.8811 91.7989 15.8811C107.265 15.8988 116.917 27.0868 117.465 43.0993ZM102.555 43.0993C102.555 27.0868 97.7277 16.2273 87.8564 18.5322C79.1905 20.6146 76.6684 30.8145 79.8501 43.0993H102.555Z" fill="white"/>
<path d="M145.821 39.7507C160.848 39.7507 170.611 51.0474 170.611 68.1593V89.9869L173.793 93.2723V95.4659H155.258V87.6947C152.516 93.1788 147.252 96.5804 139.463 96.5804C129.154 96.5804 120.256 90.4367 120.256 80.3455C120.256 64.333 143.289 65.6497 156.014 71.571C161.386 57.641 160.949 45.3586 150.959 42.7253C144.05 40.8602 142.404 46.0107 140.319 50.1831C131.656 67.4036 119.7 57.0925 126.94 47.6559C130.58 43.0412 137.818 39.7507 145.821 39.7507ZM135.624 80.2242C135.624 89.3222 141.328 93.0575 145.387 93.0575C150.651 93.0575 155.258 86.5852 155.258 77.3735V73.6433C143.63 68.2679 135.624 69.6933 135.624 80.2242Z" fill="white"/>
<path d="M177.75 94.6395L181.035 91.3541V29.0631L177.75 25.7777V23.5664L194.205 20.281H196.287V91.3491L199.573 94.6344V96.8281H177.75V94.6395Z" fill="white"/>
<path d="M96.5406 111.721C93.9223 107.114 88.3498 100.311 79.0319 103.687C66.7522 108.15 62.9891 125.34 70.3939 145.513C78.1247 167.11 91.9132 173.605 103.533 169.797C110.329 167.522 114.176 162.261 117.805 155.369H119.996C113.716 172.006 101.87 178.114 89.4921 178.086C69.6509 178.048 53.9113 162.248 53.9669 138.239C54.0175 114.905 69.0595 99.3832 89.9824 99.4313C99.7324 99.4515 106.409 102.863 109.902 107.253C117.658 117.026 104.602 126.528 96.5406 111.721Z" fill="white"/>
<path d="M145.748 122.886C160.772 122.886 170.535 134.183 170.535 151.292V173.115L173.717 176.4V178.594H155.172V170.815C152.43 176.299 147.166 179.701 139.377 179.701C129.068 179.701 120.183 173.557 120.183 163.468C120.183 147.453 143.216 148.77 155.94 154.694C161.321 140.766 160.884 128.479 150.901 125.856C143.992 123.993 142.346 129.141 140.264 133.316C131.598 150.534 119.642 140.226 126.882 130.789C130.501 126.177 137.734 122.886 145.748 122.886ZM135.546 163.357C135.546 172.455 141.25 176.19 145.308 176.19C150.572 176.19 155.18 169.718 155.18 160.506V156.776C143.547 151.403 135.546 152.829 135.546 163.357Z" fill="white"/>
<path d="M194.075 107.435H196.269V122.79H209.211V124.984H196.269V152.073C196.269 163.261 198.134 171.487 203.618 171.487C208.673 171.487 212.173 164.687 214.806 160.299H217C212.281 171.166 206.249 178.508 196.817 178.508C187.603 178.508 181.022 171.27 181.022 154.487V124.984H175.538V122.79H181.022L194.075 107.435Z" fill="white"/>
<path d="M29.9115 41.1204C58.0673 50.7592 48.5347 95.2358 71.6486 95.2358C78.879 95.2358 81.1813 90.7449 82.1669 87.457C85.4523 76.1755 96.2966 78.5839 93.4485 86.6988C91.2574 92.7237 83.2612 97.2146 70.2258 97.2146C23.5581 97.2146 43.9427 39.2654 13.3633 41.2366V41.1279" fill="white"/>
</svg>
