<svg width="396" height="48" viewBox="0 0 396 48" fill="none" xmlns="http://www.w3.org/2000/svg">
<g clip-path="url(#clip0_105_179)">
<path d="M0.595703 35.46L7.9757 33.96C8.4557 38.22 11.6957 41.16 17.4557 41.16C23.0357 41.16 26.0957 38.64 26.0957 34.5C26.0957 31.2 23.9957 29.22 19.3757 27.36L12.2357 24.48C5.0957 21.6 2.0957 17.64 2.0957 12.12C2.0957 4.62 8.1557 0 17.3357 0C24.4157 0 30.7157 3.48 32.5157 8.1L26.4557 11.64C24.5957 8.46 21.1157 6.36 17.0357 6.36C12.9557 6.36 10.0157 8.4 10.0157 11.58C10.0157 14.28 11.3957 15.9 15.9557 17.82L22.6157 20.64C30.5357 23.94 34.1957 27.6 34.1957 34.02C34.1957 42.84 28.0157 48 17.6957 48C7.7357 48 1.3157 42.96 0.595703 35.46ZM75.6946 24C75.6946 40.32 69.3946 48 56.4346 48C43.2346 48 37.1746 40.62 37.1746 24C37.1746 7.68 43.4746 0 56.4346 0C69.6346 0 75.6946 7.38 75.6946 24ZM45.1546 24C45.1546 36 48.0346 41.04 56.4346 41.04C64.8346 41.04 67.7146 36 67.7146 24C67.7146 11.88 64.8346 6.96 56.4346 6.96C48.0346 6.96 45.1546 11.88 45.1546 24ZM81.0777 47.4V1.2H89.0577V40.44H109.637V47.4H81.0777ZM121.162 1.2V47.4H112.882V1.2H121.162ZM127.753 47.4V1.2H142.393C156.073 1.2 161.593 8.28 161.593 24.3C161.593 40.38 155.593 47.4 142.393 47.4H127.753ZM135.433 40.38H143.173C150.973 40.38 153.613 35.7 153.613 24.3C153.613 12.84 150.973 8.16 143.173 8.16H135.433V40.38ZM206.613 1.2H214.293V47.4H206.613V26.64H186.093V47.4H178.413V1.2H186.093V19.68H206.613V1.2ZM258.202 24C258.202 40.32 251.902 48 238.942 48C225.742 48 219.682 40.62 219.682 24C219.682 7.68 225.982 0 238.942 0C252.142 0 258.202 7.38 258.202 24ZM227.662 24C227.662 36 230.542 41.04 238.942 41.04C247.342 41.04 250.222 36 250.222 24C250.222 11.88 247.342 6.96 238.942 6.96C230.542 6.96 227.662 11.88 227.662 24ZM263.585 47.4V1.2H275.945L285.785 41.04L295.625 1.2H307.985V47.4H300.905V9.06L291.305 47.4H280.265L270.665 9.06V47.4H263.585ZM314.609 47.4V1.2H326.969L336.809 41.04L346.649 1.2H359.009V47.4H351.929V9.06L342.329 47.4H331.289L321.689 9.06V47.4H314.609ZM373.312 40.44H395.992V47.4H365.632V1.2H394.792V8.16H373.312V20.7H393.892V27.42H373.312V40.44Z" fill="white"/>
</g>
<defs>
<clipPath id="clip0_105_179">
<rect width="396" height="48" fill="white"/>
</clipPath>
</defs>
</svg>
