<svg width="294" height="112" viewBox="0 0 294 112" fill="none" xmlns="http://www.w3.org/2000/svg">
<g clip-path="url(#clip0_105_181)">
<path opacity="0.3" d="M293.793 18.9761C291.314 18.5636 288.835 18.1511 286.149 17.7385C281.19 16.9135 276.025 16.2947 271.066 15.8822C260.943 15.0571 250.819 14.8509 240.695 15.2634C220.655 16.0884 200.407 19.5949 181.606 26.4015C172.309 29.908 163.218 34.0332 154.541 38.9835C146.07 44.14 138.012 49.7091 130.575 56.1032C115.699 68.8914 103.716 84.361 94.2119 100.656C105.369 85.186 118.798 71.3665 134.087 60.4347C141.731 55.0719 149.995 50.3278 158.466 46.4089C166.937 42.4899 175.821 39.6022 184.912 37.1271C203.093 32.5894 221.894 31.1455 240.282 32.1768C249.579 32.5894 258.877 33.8269 267.967 35.477C272.513 36.3021 277.058 37.3334 281.397 38.3647C283.669 38.9835 285.735 39.6022 288.008 40.221L291.314 41.2523C292.14 41.4586 292.967 41.8711 293.586 42.0774L293.793 18.9761Z" fill="white"/>
<path opacity="0.3" d="M187.185 1.03125C176.028 1.85629 164.665 3.09386 153.715 5.77526C142.765 8.2504 131.815 11.5506 121.484 16.0883C100.617 24.9576 81.1962 37.3333 64.4612 52.5966C55.9903 60.2283 48.3459 68.4788 41.3213 77.1418C37.809 81.4732 34.2967 86.011 31.1977 90.755C29.5448 93.0239 28.0986 95.499 26.4457 97.9742C25.6193 99.2117 24.9995 100.449 24.1731 101.687C23.3466 102.924 22.7268 104.162 21.9004 105.812L35.9496 111.381H48.5525C48.7591 110.762 49.1724 110.144 49.379 109.319C50.412 107.05 51.445 104.987 52.6846 102.718C54.9573 98.3867 57.6432 94.0552 60.3291 89.93C65.9074 81.4732 71.899 73.429 78.717 65.7974C92.353 50.534 108.675 37.5395 127.063 27.4327C136.153 22.2762 146.07 18.151 156.194 14.8508C166.318 11.3443 176.855 9.07545 187.598 7.21909C209.498 4.12517 231.605 4.12517 253.505 6.80657C232.018 2.06255 209.705 -0.206323 187.185 1.03125Z" fill="white"/>
<path d="M62.1883 46.6151H87.6008V54.8656H71.4856V75.698H86.1546V83.7422H71.4856V111.381H62.1883V46.6151ZM91.3198 46.6151H116.732V54.8656H100.617V74.2541H115.699V82.2983H100.41V102.924H116.526V111.175H91.3198V46.6151ZM127.682 110.144C125.41 108.906 123.55 107.256 122.311 104.781C121.071 102.512 120.451 99.6243 120.245 96.3241V92.1989H129.335V96.9429C129.335 98.3867 129.748 99.6243 130.368 100.449C130.988 101.481 131.608 102.099 132.641 102.718C133.674 103.337 134.707 103.543 135.947 103.543C137.186 103.543 138.219 103.337 139.046 102.718C139.872 102.306 140.699 101.481 141.112 100.656C141.525 99.8306 141.732 98.593 141.732 97.3554V94.8803C141.732 92.4052 141.318 90.3425 140.285 88.6925C139.252 87.0424 137.393 85.186 134.5 83.1234L130.781 80.442C127.476 78.1731 124.996 75.698 123.344 73.0166C121.691 70.3352 120.864 67.035 120.864 62.9098V60.6409C120.864 57.547 121.484 55.0718 122.724 52.8029C123.963 50.5341 125.616 48.884 127.889 47.6464C130.162 46.4088 132.848 45.7901 135.74 45.7901C138.839 45.7901 141.525 46.4088 143.591 47.6464C145.657 48.884 147.31 50.5341 148.55 52.8029C149.789 55.0718 150.409 57.7532 150.409 61.0534V65.3849H141.318V60.6409C141.318 59.1971 140.905 57.9595 140.492 56.9282C140.079 55.8969 139.459 55.2781 138.632 54.6593C137.806 54.0405 136.773 53.8343 135.74 53.8343C134.707 53.8343 133.674 54.0405 132.848 54.453C132.021 54.8656 131.401 55.4843 130.988 56.5157C130.575 57.3407 130.368 58.372 130.368 59.6096V62.0847C130.368 64.3536 130.988 66.2099 132.021 68.0663C133.054 69.9227 134.914 71.5727 137.186 73.4291L140.905 76.1105C143.384 77.7606 145.244 79.6169 146.897 81.267C148.343 82.9171 149.583 84.9797 150.202 86.8361C150.822 88.8987 151.235 91.1676 151.235 93.849V96.3241C151.235 99.4181 150.616 102.306 149.376 104.575C148.136 106.843 146.277 108.7 144.004 109.937C141.732 111.175 139.046 111.794 135.947 111.794C132.641 112 129.955 111.381 127.682 110.144ZM162.392 55.0718H152.268V46.8214H181.606V55.0718H171.483V111.381H162.186V55.0718H162.392ZM185.119 46.6151H194.416V111.381H185.119V46.6151ZM197.928 46.6151H207.432L215.283 100.243H215.49L223.341 46.6151H232.845L221.481 111.381H209.292L197.928 46.6151ZM241.935 46.6151H250.819V57.3407H247.927L239.663 111.381H230.159L241.935 46.6151ZM238.836 89.105H257.018L258.257 96.9429H237.39L238.836 89.105ZM248.134 57.3407V46.6151H253.918L265.695 111.175H256.191L248.134 57.3407ZM269.001 46.6151H278.298V102.924H293.793V111.175H269.001V46.6151ZM67.1469 28.8766C65.494 28.2578 64.461 27.4328 63.428 26.1952C62.6015 24.9576 62.1883 23.7201 62.1883 22.07V7.83794C62.1883 6.18785 62.6015 4.74401 63.428 3.71271C64.2544 2.47514 65.494 1.65009 67.1469 1.03131C68.5931 0.412523 70.4526 0 72.5186 0C74.5847 0 76.2375 0.412523 77.8904 1.03131C79.3366 1.65009 80.5762 2.6814 81.6093 3.71271C82.6423 4.74401 82.8489 6.18785 82.8489 7.83794V21.8637C82.8489 23.5138 82.4357 24.7514 81.6093 25.989C80.7829 27.2265 79.5432 28.0516 77.8904 28.6703C76.4441 29.2891 74.5847 29.7017 72.5186 29.7017C70.4526 29.7017 68.5931 29.4954 67.1469 28.8766ZM74.7913 25.3702C75.4111 25.1639 76.0309 24.5451 76.2375 24.1326C76.4441 23.7201 76.6507 22.895 76.6507 22.07V7.63168C76.6507 6.80663 76.4441 6.18785 76.2375 5.56906C76.0309 4.95028 75.4111 4.53775 74.7913 4.33149C74.1715 4.12523 73.345 3.91897 72.5186 3.91897C71.6922 3.91897 70.8658 4.12523 70.246 4.33149C69.6261 4.53775 69.0063 5.15654 68.7997 5.56906C68.5931 5.98158 68.1799 6.80663 68.1799 7.63168V22.07C68.1799 22.895 68.3865 23.5138 68.5931 24.1326C69.0063 24.7514 69.4195 25.1639 70.0394 25.3702C70.6592 25.5764 71.4856 25.7827 72.312 25.7827C73.345 25.989 74.1715 25.7827 74.7913 25.3702ZM91.1131 28.8766C89.6669 28.2578 88.4273 27.4328 87.6008 26.4015C86.7744 25.3702 86.3612 23.9263 86.3612 22.2762V0.412523H92.3528V22.2762C92.3528 23.1013 92.5594 23.7201 92.766 24.3389C93.1792 24.9576 93.5924 25.3702 94.2122 25.5764C94.832 25.7827 95.4519 25.989 96.4849 25.989C97.3113 25.989 98.1377 25.7827 98.7576 25.5764C99.3774 25.3702 99.7906 24.9576 100.204 24.3389C100.617 23.7201 100.617 23.1013 100.617 22.2762V0.412523H106.402V22.2762C106.402 23.9263 105.989 25.1639 105.162 26.4015C104.336 27.639 103.096 28.4641 101.65 28.8766C100.204 29.4954 98.3443 29.7017 96.4849 29.7017C94.2122 29.7017 92.5594 29.4954 91.1131 28.8766ZM109.914 0.412523H115.906L127.269 26.814L122.724 21.2449H124.996V0.206262H130.162V29.2891H123.963L112.6 2.88766L117.145 8.45672H114.873L115.079 29.4954H109.914V0.412523ZM139.459 29.2891C138.219 28.8766 137.186 28.4641 136.153 27.639C135.327 27.0203 134.5 26.1952 134.087 25.1639C133.674 24.1326 133.467 23.1013 133.467 21.8637V7.83794C133.467 6.39411 133.881 4.95028 134.707 3.71271C135.533 2.47514 136.773 1.65009 138.219 1.03131C139.666 0.412523 141.525 0 143.591 0C145.45 0 147.31 0.412523 148.756 1.03131C150.202 1.65009 151.442 2.47514 152.268 3.71271C153.095 4.95028 153.508 6.18785 153.508 7.83794V10.5193H147.723V7.42541C147.723 6.18785 147.31 5.3628 146.69 4.74401C146.07 4.12523 145.037 3.91897 143.798 3.91897C142.765 3.91897 142.145 4.12523 141.525 4.33149C140.905 4.53775 140.492 5.15654 140.079 5.56906C139.666 5.98158 139.665 6.80663 139.665 7.42541V22.07C139.665 22.6888 139.665 23.1013 139.872 23.5138C140.079 23.9263 140.285 24.3389 140.699 24.7514C141.112 25.1639 141.525 25.3702 141.938 25.5764C142.351 25.7827 142.971 25.7827 143.798 25.7827C144.624 25.7827 145.244 25.5764 145.864 25.3702C146.483 25.1639 146.897 24.7514 147.31 24.1326C147.517 23.5138 147.723 22.895 147.723 22.07V17.1197H143.178V13.6133H153.715V21.8637C153.715 23.1013 153.508 24.1326 153.095 25.1639C152.682 26.1952 151.855 27.0203 151.029 27.639C150.202 28.2578 149.169 28.8766 147.93 29.2891C146.69 29.7017 145.45 29.9079 143.798 29.9079C142.145 29.7017 140.699 29.4954 139.459 29.2891ZM21.487 72.6041L0 0H16.5285L29.7512 51.7716H30.1644L43.1806 0H59.2959L38.0155 72.6041V111.381H21.487V72.6041Z" fill="white"/>
</g>
<defs>
<clipPath id="clip0_105_181">
<rect width="294" height="112" fill="white"/>
</clipPath>
</defs>
</svg>
